<?xml version="1.0" encoding="UTF-8"?> 
<svg xmlns="http://www.w3.org/2000/svg" width="143" height="45" viewBox="0 0 143 45" fill="none">
    <!-- Все элементы с красным цветом заменены на синий #4F46E5 -->
    <path d="M0 1.36267H8.75218C10.9243 1.36267 12.6364 1.8735 13.8942 2.89517C15.1502 3.91683 15.7772 5.44187 15.7772 7.46655C15.7772 9.37937 15.1915 10.8932 14.0219 12.01C12.8504 13.1267 11.2547 13.6842 9.23465 13.6842H3.54067V21.3914H0V1.36267ZM3.54067 4.28783V10.8429H8.4687C11.0369 10.8429 12.321 9.74478 12.321 7.55231C12.321 5.35984 10.9337 4.2897 8.15706 4.2897H3.54067V4.28783Z" fill="#4F46E5"></path>
    <path d="M18.8091 1.36243H28.3554C30.3566 1.36243 31.9918 1.80801 33.2552 2.69917C34.5206 3.59032 35.1532 5.00164 35.1532 6.9331C35.1532 8.13374 34.8604 9.161 34.2746 10.013C33.6889 10.8669 32.8685 11.4802 31.8097 11.855C32.3016 11.9668 32.7258 12.1365 33.0844 12.3621C33.443 12.5877 33.7227 12.8319 33.9198 13.0929C34.1188 13.3558 34.284 13.6932 34.4154 14.1053C34.5469 14.5173 34.637 14.879 34.6839 15.1884C34.7308 15.4979 34.774 15.9062 34.8116 16.4115C34.8303 16.542 34.8529 16.7955 34.8829 17.1702C34.9111 17.545 34.9298 17.7948 34.9392 17.916C34.9486 18.039 34.9674 18.2497 34.9955 18.5499C35.0237 18.85 35.0481 19.0607 35.0669 19.1819C35.0857 19.3049 35.1194 19.482 35.1664 19.7169C35.2133 19.9519 35.2565 20.129 35.294 20.252C35.3316 20.3751 35.3785 20.5149 35.4348 20.6734C35.4912 20.8337 35.5569 20.9679 35.6338 21.0816C35.7089 21.1935 35.7934 21.2979 35.8892 21.3911H32.0932C32.0368 21.3166 31.9843 21.2271 31.9373 21.1245C31.8904 21.022 31.8472 20.9083 31.8097 20.7871C31.7721 20.6659 31.744 20.5522 31.7252 20.4496C31.7064 20.3471 31.6839 20.2054 31.6539 20.0283C31.6257 19.8512 31.6069 19.7058 31.5975 19.592C31.5882 19.4783 31.5731 19.3105 31.5562 19.0849C31.5375 18.8593 31.5225 18.6916 31.5149 18.5778C31.5056 18.466 31.4905 18.2683 31.4718 17.9868C31.453 17.7053 31.4436 17.5077 31.4436 17.3958C31.3479 15.7645 31.0043 14.644 30.4092 14.0344C29.8141 13.4248 28.6858 13.1209 27.0243 13.1209H22.3216V21.3911H18.8091V1.36243ZM22.3216 4.23166V10.5052H26.9962C27.6758 10.5052 28.2521 10.4679 28.7233 10.3933C29.1945 10.3188 29.6733 10.1827 30.1539 9.98504C30.6345 9.78742 31.0024 9.46489 31.2577 9.01372C31.5131 8.56441 31.6407 7.99205 31.6407 7.29851C31.6407 6.66091 31.5281 6.13143 31.3009 5.71009C31.0738 5.28875 30.749 4.97367 30.3228 4.76673C29.8986 4.55979 29.463 4.41996 29.02 4.34539C28.575 4.27081 28.0512 4.23352 27.4486 4.23352H22.3216V4.23166Z" fill="#4F46E5"></path>
    <path d="M53.2828 1.36243V4.31556H42.2628V9.63268H52.4886V12.4739H42.2628V18.3821H53.4517V21.393H38.7502V1.36243H53.2828Z" fill="#4F46E5"></path>
    <!-- Остальные элементы с серым цветом (#B3B3B3) оставлены без изменений -->
    <path d="M62.797 1.3009H56.1174V21.3911H62.5455C67.9597 21.3911 69.4841 18.1826 69.4841 11.0664C69.4841 5.15638 68.461 1.3009 62.7951 1.3009H62.797ZM62.0085 18.4044H60.1988V4.28759H61.9222C65.0404 4.28759 65.4047 6.61989 65.4047 11.1782C65.4047 16.6333 64.8414 18.4044 62.0085 18.4044Z" fill="#B3B3B3"></path>
    <path d="M76.451 1.3009H72.3696V21.3911H76.451V1.3009Z" fill="#B3B3B3"></path>
    <path d="M92.3746 13.7082C92.3746 18.0446 91.3008 21.7864 85.9466 21.7864C79.8208 21.7864 79.0586 17.4499 79.0586 11.3498C79.0586 5.2496 79.8208 0.90567 85.9447 0.90567C92.0686 0.90567 92.2 5.15639 92.2 8.08155H88.1187C88.1187 5.15639 87.5292 3.89236 85.6837 3.89236C83.6224 3.89236 83.1362 5.94874 83.1362 11.6275C83.1362 17.7109 83.9847 18.8034 85.7438 18.8034C87.2157 18.8034 88.2914 18.0465 88.2914 13.71H92.3727L92.3746 13.7082Z" fill="#B3B3B3"></path>
    <path d="M106.539 1.3009V4.62317H102.12V21.3911H98.0404V4.62317H93.6211V1.3009H106.539Z" fill="#B3B3B3"></path>
    <!-- Остальные красные элементы заменены на синий -->
    <path d="M29.2239 23.5074H22.5349V43.5958H28.9629C34.3772 43.5958 35.9016 40.3947 35.9016 33.271C35.9016 27.361 34.8878 23.5055 29.222 23.5055L29.2239 23.5074ZM28.426 40.6203H26.6144V26.4941H28.3378C31.4561 26.4941 31.8296 28.8338 31.8296 33.3866C31.8296 38.8491 31.2571 40.6221 28.4241 40.6221L28.426 40.6203Z" fill="#B3B3B3"></path>
    <path d="M50.3191 40.2751V43.5955H38.7358V23.5072H50.0431V26.8276H42.8172V31.5593H49.6169V34.8816H42.8172V40.2751H50.3191Z" fill="#B3B3B3"></path>
    <path d="M70.2081 35.976C70.0185 38.4332 69.1362 40.3964 67.5592 41.8692C65.9822 43.342 63.9378 44.0766 61.4259 44.0766C58.5742 44.0766 56.2895 43.1202 54.5717 41.2073C52.854 39.2945 51.9941 36.7534 51.9941 33.584C51.9941 31.6712 52.3621 29.9318 53.098 28.3657C53.8339 26.7997 54.9397 25.5338 56.4115 24.568C57.8853 23.6023 59.6124 23.1194 61.5949 23.1194C63.7294 23.1194 65.5899 23.7048 67.1743 24.8775C68.7607 26.0502 69.7144 27.743 70.0354 29.956H66.5229C66.277 28.7554 65.71 27.8139 64.8239 27.1296C63.9359 26.4454 62.8414 26.1024 61.5386 26.1024C60.2357 26.1024 59.0605 26.4771 58.1255 27.2285C57.1906 27.9779 56.5298 28.9026 56.1431 29.9989C55.7563 31.097 55.563 32.292 55.563 33.5859C55.563 34.5609 55.6756 35.4801 55.9028 36.3433C56.1299 37.2065 56.4697 37.9988 56.9222 38.7203C57.3746 39.4418 57.9941 40.0198 58.777 40.4504C59.5598 40.8811 60.4722 41.0973 61.5104 41.0973C64.5123 41.0973 66.2319 39.3915 66.6656 35.9778H70.2063L70.2081 35.976Z" fill="#4F46E5"></path>
    <path d="M76.2837 23.5705V43.5992H72.7148V23.5705H76.2837Z" fill="#4F46E5"></path>
    <path d="M95.2035 29.4768H91.8318C91.6234 27.1333 90.161 25.9606 87.4407 25.9606C86.2317 25.9606 85.2874 26.2086 84.6078 26.7064C83.9282 27.2041 83.5884 27.8828 83.5884 28.746C83.5884 29.5532 83.8381 30.1069 84.3394 30.4052C84.8406 30.7054 85.9482 31.0708 87.6679 31.5033C88.1203 31.6338 88.4695 31.7289 88.7154 31.7849C90.9626 32.3479 92.4927 32.8531 93.3037 33.3043C95.0965 34.2607 95.9958 35.7522 95.9958 37.7769C95.9958 38.6587 95.8437 39.4548 95.5433 40.167C95.2411 40.8791 94.8356 41.4757 94.3249 41.953C93.8143 42.4303 93.2098 42.8293 92.5114 43.1481C91.8131 43.4669 91.0847 43.6962 90.33 43.8379C89.5734 43.9777 88.7905 44.0485 87.9795 44.0485C85.4489 44.0485 83.3988 43.4482 81.8331 42.2476C80.2655 41.0469 79.4827 39.2851 79.4827 36.9584H82.967C82.967 38.4219 83.4476 39.5051 84.4126 40.208C85.3756 40.9108 86.6316 41.2632 88.1804 41.2632C89.5396 41.2632 90.6022 40.9873 91.3663 40.4336C92.1303 39.8799 92.5133 39.1062 92.5133 38.1125C92.5133 37.4748 92.3106 36.9547 91.9051 36.552C91.4995 36.1493 91.0602 35.8622 90.5872 35.6944C90.1141 35.5266 89.2937 35.2917 88.1222 34.9915C87.9889 34.9542 87.8857 34.9263 87.8106 34.9076C85.2987 34.27 83.6466 33.7443 82.8525 33.3323C81.2098 32.4877 80.3312 31.1845 80.2186 29.4227V29.0293C80.2186 27.247 80.8944 25.8264 82.2442 24.7674C83.5941 23.7085 85.4019 23.179 87.6679 23.179C89.9338 23.179 91.6422 23.6954 93.0221 24.7264C94.4 25.7574 95.1284 27.3421 95.2035 29.4805V29.4768Z" fill="#4F46E5"></path>
    <path d="M101.958 23.5705V43.5992H98.3896V23.5705H101.958Z" fill="#4F46E5"></path>
    <path d="M114.239 23.0914C117.091 23.0914 119.409 24.0627 121.193 26.0035C122.976 27.9443 123.87 30.4724 123.87 33.584C123.87 36.6956 122.972 39.2236 121.18 41.1644C119.385 43.1052 117.053 44.0765 114.183 44.0765C111.312 44.0765 108.956 43.1108 107.173 41.1793C105.387 39.2479 104.496 36.7161 104.496 33.584C104.496 30.4519 105.369 28.0375 107.115 26.0595C108.862 24.0814 111.237 23.0914 114.239 23.0914ZM114.183 26.0445C112.332 26.0445 110.849 26.725 109.735 28.0841C108.62 29.4451 108.064 31.2591 108.064 33.528C108.064 35.797 108.616 37.7005 109.722 39.0689C110.826 40.4373 112.334 41.1215 114.241 41.1215C116.148 41.1215 117.541 40.4317 118.645 39.054C119.749 37.6762 120.303 35.8436 120.303 33.5541C120.303 31.2647 119.751 29.4433 118.645 28.0823C117.541 26.7232 116.054 26.0427 114.185 26.0427L114.183 26.0445Z" fill="#4F46E5"></path>
    <path d="M142.998 23.5705V43.5992H139.345L129.941 28.8578V43.5992H126.598V23.5705H130.309L139.6 38.3399V23.5705H143H142.998Z" fill="#4F46E5"></path>
</svg>