<?xml version="1.0" encoding="UTF-8"?> <svg xmlns="http://www.w3.org/2000/svg" width="151" height="44" viewBox="0 0 151 44" fill="none"><g clip-path="url(#clip0_61_79)"><path d="M42.5691 1.43089V33C42.5691 38.2764 38.2764 42.5691 33 42.5691H11C5.72358 42.5691 1.43089 38.2764 1.43089 33V11C1.43089 5.72358 5.72358 1.43089 11 1.43089H42.5691ZM44 0H11C4.9187 0 0 4.9187 0 11V33C0 39.0813 4.9187 44 11 44H33C39.0813 44 44 39.0813 44 33V0Z" fill="#B3B3B3"></path><path d="M36.3984 16.5447H31.122L26.1138 22.0894V11H22V13.6829C21.9106 13.5041 21.7317 13.3252 21.5529 13.1463C20.0325 11.5366 17.9756 10.8211 15.2033 10.8211C12.0732 10.8211 10.2846 12.252 9.30082 13.4146C8.13822 14.8455 7.60164 16.9024 7.95936 18.5122C8.9431 22.7154 12.8781 23.4309 15.7399 23.7886C18.0651 24.0569 20.2114 24.5041 20.122 26.561C20.0325 28.7073 17.7073 29.1545 16.0976 29.1545C12.0732 29.1545 11.8943 26.1138 11.8943 26.1138H7.51221C7.60164 27.2764 7.95936 29.065 9.30082 30.5854C10.8212 32.2846 13.1464 33.1789 16.0976 33.1789C18.4228 33.1789 20.4797 32.4634 22 31.1219V32.9106H26.1138V27.7236L27.5447 26.1138L31.6586 32.9106H36.3984L30.4065 23.0732L36.3984 16.5447ZM22 21.4634C19.0488 19.0488 12.6992 20.5691 12.0732 17.5285C11.7155 15.9187 13.3252 14.5772 15.2927 14.5772C17.0813 14.5772 18.9594 15.0244 19.6748 17.5285H22V21.4634Z" fill="#B3B3B3"></path><path d="M54.4637 30.2276C54.7319 30.3171 55.0897 30.4065 55.4474 30.4065C55.8945 30.4065 56.2523 30.2277 56.5206 29.9594C56.7889 29.6911 56.9677 29.3333 57.0571 28.8862L51.2441 16.6342H55.0897L58.8458 25.4878L62.1547 16.6342H65.8214L60.6344 28.7073C59.9189 30.3171 59.2035 31.4797 58.488 32.2846C57.6832 33.0894 56.8783 33.4472 55.8945 33.4472C55.5368 33.4472 55.358 33.4472 55.0897 33.3577C54.8214 33.3577 54.6425 33.2683 54.5531 33.2683L54.1059 33.0894C53.9271 33.0894 53.7482 33.0894 53.6588 33V29.8699C53.8376 30.0488 54.1059 30.1382 54.4637 30.2276Z" fill="#B3B3B3"></path><path d="M72.0814 28.439C71.8131 28.5285 71.6343 28.5285 71.366 28.6179C71.0977 28.7073 70.8294 28.7073 70.4717 28.7073C70.2034 28.7968 69.8456 28.7968 69.5774 28.7968C68.8619 28.7968 68.2359 28.7073 67.6993 28.6179C67.1627 28.439 66.7156 28.2602 66.3578 27.9919C66.0001 27.7236 65.7318 27.3659 65.553 26.9187C65.3741 26.4715 65.2847 25.935 65.2847 25.3089V20.9268H68.4147V24.6829C68.4147 25.0407 68.5042 25.3089 68.5936 25.4878C68.683 25.7561 68.7725 25.935 68.9513 26.0244C69.1302 26.2033 69.3091 26.2927 69.5774 26.2927C69.8456 26.3821 70.2034 26.3821 70.5611 26.3821C71.0977 26.3821 71.5448 26.2927 71.8131 26.2033C72.1708 26.1138 72.3497 25.935 72.5286 25.8455V20.8374H75.6587V33H72.5286V28.1707C72.4391 28.2602 72.2603 28.3496 72.0814 28.439Z" fill="#B3B3B3"></path><path d="M87.9109 31.5691C87.9109 31.8374 88.0003 32.0163 88.0898 32.1057C88.1792 32.2846 88.2686 32.374 88.3581 32.4634C88.4475 32.5528 88.5369 32.5528 88.6263 32.6423V33.1789H85.1385L84.9597 32.4634C84.8703 32.1951 84.8703 31.9268 84.8703 31.6585L84.0654 32.2845C83.7971 32.4634 83.5288 32.6423 83.2605 32.8211C82.9922 33 82.6345 33.0894 82.2768 33.1789C81.919 33.2683 81.4719 33.3577 80.9353 33.3577C80.3987 33.3577 79.8621 33.2683 79.415 33.0894C78.9678 32.9106 78.6101 32.6423 78.2524 32.374C77.8946 32.0163 77.6263 31.6585 77.4475 31.2114C77.2686 30.7642 77.1792 30.2276 77.1792 29.6016C77.1792 29.065 77.2686 28.6179 77.4475 28.1707C77.6263 27.7236 77.8052 27.3659 78.0735 27.0081C78.3418 26.6504 78.6995 26.3821 79.1467 26.2032C79.5938 25.935 80.041 25.8455 80.5776 25.7561L83.6182 25.3089C83.7077 25.3089 83.8865 25.3089 83.9759 25.2195C84.1548 25.2195 84.2442 25.1301 84.3337 25.0406C84.4231 24.9512 84.5125 24.8618 84.602 24.7724C84.6914 24.5935 84.6914 24.5041 84.6914 24.2358C84.6914 24.0569 84.602 23.878 84.602 23.6992C84.5125 23.5203 84.4231 23.3415 84.2442 23.252C84.0654 23.0732 83.8865 22.9837 83.6182 22.9837C83.3499 22.8943 83.0816 22.8943 82.7239 22.8943C82.2768 22.8943 82.0085 22.9837 81.7402 22.9837C81.4719 23.0732 81.293 23.252 81.1142 23.3415C80.9353 23.5203 80.8459 23.6992 80.7564 23.878L80.5776 24.5041H77.4475C77.4475 24.3252 77.4475 24.1463 77.5369 23.878C77.6263 23.6098 77.7158 23.3415 77.8052 22.9837C77.8946 22.7154 78.1629 22.3577 78.3418 22.0894C78.6101 21.7317 78.8784 21.4634 79.2361 21.1951C79.5938 20.9268 80.041 20.748 80.667 20.5691C81.2036 20.3902 81.8296 20.3008 82.6345 20.3008C83.7077 20.3008 84.602 20.3902 85.3174 20.6585C85.9434 20.9268 86.48 21.1951 86.9272 21.5528C87.2849 21.9106 87.5532 22.2683 87.6426 22.7154C87.732 23.1626 87.8215 23.6098 87.8215 24.0569V30.4959C87.9109 31.0325 87.9109 31.3008 87.9109 31.5691ZM84.1548 27.3659C83.9759 27.4553 83.7076 27.5447 83.3499 27.6341L82.5451 27.7236C82.1873 27.813 81.8296 27.9024 81.5613 27.9919C81.293 28.0813 81.0247 28.1707 80.8459 28.3496C80.667 28.5285 80.4881 28.7073 80.3987 28.8862C80.3093 29.065 80.2198 29.3333 80.2198 29.6911C80.2198 29.9593 80.3093 30.1382 80.3093 30.3171C80.3987 30.4959 80.4881 30.6748 80.667 30.7642C80.8459 30.8537 80.9353 31.0325 81.1142 31.0325C81.293 31.122 81.5613 31.1219 81.7402 31.1219C81.8296 31.1219 82.0085 31.122 82.1873 31.0325C82.3662 31.0325 82.545 30.9431 82.8133 30.8537C82.9922 30.7642 83.2605 30.6748 83.4394 30.4959C83.6182 30.4065 83.7971 30.2276 83.9759 29.9593C84.1548 29.7805 84.3337 29.5122 84.4231 29.1545C84.5125 28.8862 84.602 28.5285 84.602 28.0813V26.8293C84.5125 27.187 84.3337 27.2764 84.1548 27.3659Z" fill="#B3B3B3"></path><path d="M96.7645 24.3252C96.6751 24.0569 96.4962 23.878 96.4068 23.6992C96.2279 23.5203 96.049 23.4309 95.7807 23.3415C95.5125 23.252 95.2442 23.252 94.8864 23.252C94.3499 23.252 93.9921 23.3415 93.6344 23.6098C93.2767 23.878 93.0978 24.1463 92.919 24.5041C92.7401 24.8618 92.6507 25.3089 92.5612 25.7561C92.4718 26.2033 92.4718 26.561 92.4718 27.0081C92.4718 27.3659 92.4718 27.813 92.5612 28.2602C92.6507 28.7073 92.7401 29.065 92.919 29.5122C93.0978 29.8699 93.2767 30.2276 93.6344 30.4065C93.9921 30.6748 94.3498 30.7642 94.9759 30.7642C95.3336 30.7642 95.6913 30.6748 95.9596 30.4959C96.2279 30.3171 96.4068 30.1382 96.5856 29.9594C96.7645 29.6911 96.9433 29.5122 97.0328 29.2439C97.1222 28.9756 97.1222 28.7967 97.1222 28.6179H100.431C100.431 28.7967 100.431 29.065 100.342 29.4228C100.252 29.7805 100.163 30.0488 99.984 30.4065C99.8051 30.7642 99.6263 31.122 99.358 31.4797C99.0897 31.8374 98.732 32.1951 98.3742 32.4634C97.9271 32.7317 97.4799 33 96.9433 33.1789C96.4068 33.3577 95.7807 33.4472 95.0653 33.4472C94.171 33.4472 93.3661 33.2683 92.6507 33C91.9352 32.7317 91.3092 32.2846 90.862 31.748C90.4149 31.2114 90.0572 30.4959 89.7889 29.6911C89.5206 28.8862 89.4312 27.9919 89.4312 26.9187C89.4312 25.8455 89.61 24.9512 89.8783 24.1463C90.1466 23.3415 90.5043 22.7154 91.0409 22.1789C91.5775 21.6423 92.1141 21.1951 92.8295 20.9268C93.545 20.6585 94.3499 20.4797 95.1547 20.4797C95.5125 20.4797 95.8702 20.5691 96.3173 20.5691C96.6751 20.6585 97.1222 20.748 97.4799 20.8374C97.8377 21.0163 98.1954 21.1951 98.6425 21.374C99.0003 21.6423 99.2686 21.9106 99.6263 22.2683C99.8946 22.626 100.163 22.9837 100.342 23.5203C100.521 23.9675 100.61 24.5041 100.699 25.1301H97.3905C96.9433 24.8618 96.8539 24.5935 96.7645 24.3252Z" fill="#B3B3B3"></path><path d="M111.252 20.9268V23.5203H107.586V33.0894H104.456V23.4309H100.789V20.8374H111.252V20.9268Z" fill="#B3B3B3"></path><path d="M120.016 25.3089V20.9268H123.146V33.0894H120.016V27.9024H115.366V33.0894H112.236V20.9268H115.366V25.3089H120.016Z" fill="#B3B3B3"></path><path d="M128.512 28.3496L132.984 20.8374H136.293V33H133.163V25.6667H133.073L128.781 33H125.293V20.9268H128.423L128.512 28.3496Z" fill="#B3B3B3"></path><path d="M146.131 20.9268H150.334L145.326 25.9349L150.513 33H146.399L142.822 27.9024L141.57 29.2439V33.0894H138.439V20.9268H141.57V25.5772L146.131 20.9268Z" fill="#B3B3B3"></path></g><defs><clipPath id="clip0_61_79"><rect width="150.512" height="44" fill="white"></rect></clipPath></defs></svg> 